<?xml version="1.0" encoding="UTF-8"?>
<svg version="1.1" viewBox="0 0 2000 2000" width="1280" height="1280" xmlns="http://www.w3.org/2000/svg">
<path transform="translate(0)" d="m0 0h2e3v2e3h-2e3z" fill="#FDFDFD"/>
<path transform="translate(1085,164)" d="m0 0h21l16 4 10 6 7 6 7 10 5 12 3 12 2 17v28l-3 28-8 59-2 19v38l1 29v80l-4 52-1 17v37l2 37 1 6 3-8 3-20 4-44 3-16 4-18 5-37 4-51 1-34 4-41v-17l-2-18v-23l3-17 5-13 7-11 10-9 14-7 12-3 7-1h12l12 3 9 5 10 9 9 14 6 15 5 19 3 20 2 27v64l-1 25v105l-1 30-6 87-1 19-1 37-3 50-4 42-4 28-6 29-3 24v24h2l3-9 10-40 17-76 8-30 5-22 5-31 2-19 1-70 1-13 1-48 3-19 6-18 6-10 9-10 11-7 11-4 5-1h22l10 3 10 6 7 7 7 12 5 15 3 17 1 9 2 46 1 8v22l-3 47-2 26v28l-3 73-3 54-3 65-6 47-4 38-1 17v99l-2 25-5 32-6 24-16 56-18 66 3 5v4l-4-1-1-1-21 77-14 49-6 16-11 26-15 33-16 35-13 30-7 19 4 4 2 5-1 4-4-2-2-5-2 3-20 97-8 40-5 13-6 10-8 7-12 4h-200v10h-4v-10h-182l-16-4-10-6-7-8-4-12v-22l10-65 4-34 1-13v-31l-3-14-7-13-10-13-13-15-12-13-7-8-9-10-9-11-12-14-13-17-14-18-9-12-12-17-13-18-11-16-8-12-12-19-6-10h-5l-1-2 1-2h2l-8-16-10-23-8-24-5-26-3-37-4-71v-16l-6 1 1-4 4-1-4-58-3-24-5-38-1-13v-20l1-15v-4h2l1-10 2-8v-33l-4-42-2-30v-20l2-18 5-16 1-4 1-3 7-3 10-6 12-4 6-1h17l17 4 14 6 12 8 13 12 9 12 12 23 1 4 4 1v6l10 24 10 28 7 25 5 25 1 9v35l2 12 3 11 1 35 3 26 3 13v13l-3 19-4 14 4-1 5-12 7-23 10-30 4-17 6-49 2-21 2-29 2-23 1-19v-32l-3-1 1-3h2l-5-32-6-36-7-51-2-21h-2l-2-5 3-1-4-38-2-25-1-75 1-97 1-37 1-81 1-23 3-23 3-35 4-21 7-19 7-11 9-10 11-7 11-4 6-1h22l12 4 9 6 5 5 6 7 8 16 5 17 3 18 1 10 1 107 2 29 6 36 6 52 5 57 4 28 6 26 5 21 5 36 7 70 4 43 3 12 4 6 2 1h6l5-4 4-8 1-9v-116l6-63 1-52 4-37 6-36 4-34 6-59 3-20 1-12h2l4-22 7-65 3-16 7-25 6-36 3-25 5-16 7-13 9-11 11-8 11-5z"/>
<path transform="translate(1040,1027)" d="m0 0h1l4 20 6 16 9 17 10 14 12 13 8 8 17 13 15 9 27 13 19 7 32 9 8 2 2-6 16-30 11-18 1 2-22 44-3 9 56 11 40 8 31 8 26 9 5 2-4 1-23-6-29-6-88-14-20-4-3 9-12 27-15 38-11 31 13 12 11 9 14 11 12 9 20 14 19 12 24 14 13 7-3 1-33-16-24-14-19-12-17-12-17-13-11-9-6-4-3 11-12 39-11 41-9 38-8 40-7 43-6 47-4 45-1 14h-1v-39l3-43 5-44 7-44 10-48 10-39 13-43 8-24-9-9-8-7-25-25v-2h-2l-7-8-8-8-7-8-14-15-11-12-15-16-31-31-8-7-14-12-20-15-19-12-18-10-19-9-22-8-24-6-12-2-11-1h-24l-14 1 4-2 13-2h38l24 4 21 6 21 8 19 9 14 8 16 10 16 12 16 13 20 18 36 36 7 8 14 15 9 10v2l3 1 7 8 1 3 3 1 7 8 6 7 28 28 3 1 10-27 15-35 13-28 4-10-8-1-25-7-22-8-18-8-22-13-13-10-10-9-12-12-11-15-9-16-5-11-5-17-2-12z" fill="#FEFEFE"/>
<path transform="translate(955,1161)" d="m0 0 7 6 7 7v2l3 1 7 8 12 14 13 18 10 15 12 21 11 22 11 28 8 26 6 27 4 29 1 12v46l-4 36-6 29-8 28-13 33-12 31-6 22-2 13v25l3 15-1 3-5-16-1-7v-29l5-25 11-33 10-27 8-28 6-28 3-21 2-26v-34l-2-25-5-32-8-32-9-27-11-26-10-20-13-22-10-15-14-19-11-13-9-10z" fill="#FEFEFE"/>
<path transform="translate(884,711)" d="m0 0 2 1-8 9-13 7 5 18 1 6v23l12 1 12 4-3 1-6-1h-15l-14 3-25 10-2-1 7-8 8-5h3l-5-15-2-12v-23l-10-1-9-3v-1h26l12-3z" fill="#FEFEFE"/>
<path transform="translate(1200,768)" d="m0 0 7 1 4 5 1 10-1 9 11-19 6-5h8l5 5 1 4v14l-4 15-7 14 9-1 5-6 1-3v-11l-2-6 4 4 2 5v10l-4 8-6 5-10 2-6-2-1-4 7-14 3-11 1-7v-14l-5 2-8 13-13 21-7 11-4-1 1-6 6-18 2-11v-11l-2-3-5 1-3 3-10 28-4 14h-3l1-13 2-14 1-14h1l1 17 7-20 4-5z" fill="#FDFDFD"/>
<path transform="translate(831,564)" d="m0 0h10l8 3 5 6 2 6v9l-5 10-7 5-3 1h-12l-8-5-4-5-3-7v-7l4-8 7-6z"/>
<path transform="translate(861,520)" d="m0 0h7l-5 4-5 5-8 18-9 12 6 2 9 10 3 6 1 4v7l-3 9-5 7-8 5-3 1h-15l-8-4-7-8-3-7v-11l3-10 7-8 2-1-10-9-8-16-5-4-8-3v-2h10l6 3 5 5 4 6 4 8 8 7 4 1 9-1 5-6 2-5 2-12 5-8 5-4zm-30 44-7 3-7 6-3 7v7l5 10 6 5 4 2h12l8-4 6-9 1-3v-9l-3-8-6-5-6-2z" fill="#FEFEFE"/>
<path transform="translate(1357,780)" d="m0 0h8l5 5 1 3v15l10-17 6-5 6-1 6 4 2 7-1 15-4 13-6 12-2 3 8 1-1-3h7l7 2-5 5-7 4v-4l-13-2-1-2 7-15 3-11 1-13-1-9-5 3-15 25-12 19-4 1-1-1 1-7 6-18 2-10v-12l-2-2-5 1-4 6-13 39h-3l2-19 1-7v-21l2 4 1 19 7-20 3-5z" fill="#FEFEFE"/>
<path transform="translate(1178,1399)" d="m0 0 2 1 2 13-4-2-1 7 2 11 4 8 8 6 13 5 4 1 5-28 1-6-5 1 6-11 3-1 3 13-4-1-2 12-3 23 17-1 10-4 7-8 4-9 1-7-3-1 6-12 2 1 4 11-1 2-3-1-2 12-6 12-8 7-8 3h-17l-4-1-1 17-1 8 13 5v1h-15l-2 12-3 10h-1v-23l-12-4-2-2h16l1-11 3-15-7-1-14-7-7-8-3-6-1-5v-14l1-2-6 1 7-11z" fill="#FEFEFE"/>
<path transform="translate(945,1420)" d="m0 0 8 6 13 5h15l15-1-4 5-10 4-3 1 4 7 1 3v11h-1l-2-9-3-5-5-4-9-3-9 1-6 4-4 5-1 3v11l5 8 7 4 4 1h11l-1 2-3 1h-11l-2 15-2 12 8 1 7 5-1 2h-10l-6-2-2 9-5 9-2 1v-13l2-9-14-6 3-1 14 2 3-10 5-13v-2l-6-3-5-4-5-9v-14l4-8 5-5 8-5-10-10z" fill="#FEFEFE"/>
<path transform="translate(831,1287)" d="m0 0h2l3 7-1 5-4 5-5 2 5 4 5 2 4 10-7-6-9-5-4-1h-12l-9 3-10 9-4 10v12l3 8 4 6 6 5 7 3 5 1h8l10-2-3 3-9 2-1 2v-2h-8l-9-3-7-4-7-9-11-1-4 6-6 2 3-8 3-3 2-1h6l6 3-3-10v-15l-3-4v-2h-13l-2-1v-2l7-3 6 1 5 5 2 4 4-8-2-10-12-3-4-4v-11h2l4 9 2 2 9 3 3 5 1 6 7-6h2v-9l-5-5-3-4v-2l9 3 3 5-1 7-2 4 9-3h3l1-2v2l12 1 6-5v-12z" fill="#FEFEFE"/>
<path transform="translate(1080,677)" d="m0 0 2 1-5 7-3 11-1 13 10-1h9l-4 4-10 5h-4l5 19 4 11-1 3-8-9-5-10-2-9v-4l-4 1h-10v10l-3 11-5 9-4 3 2-12 3-22-12-2-4-2 16 1-3-16-4-10-4-5v-2l4 2 7 10 5 13 1 7 15-2 1-11 4-13 6-9z" fill="#FEFEFE"/>
<path transform="translate(845,341)" d="m0 0 7 1 6 5 1 3v8l-3 6-2 1 1-10-2-5-6-2-6 3-4 6-6 21-2 16-1 14h-3l-3-24-7-20-4-6-5-3-6 1-2 4 2 11-5-5-1-2v-9l5-5 2-1h9l6 4 4 5 3 11v5h2l1-10 4-12 7-8z" fill="#FEFEFE"/>
<path transform="translate(651,891)" d="m0 0 11 1v1l-12 3-8 5-7 8-3 7-1 5v10l3 10 6 9 8 6 9 3 8 1v1h-9l-10-3-9-6-6-7-4-9-1-4v-10l3-10 6-9 9-7 4-2-9 2-10 6-6 7-4 8-2 7v14l4 11 6 8 8 6 10 4 13 1 9-2 10-5 5-4 5-5-2 5-5 6-11 7-10 3h-13l-10-3-10-6-7-8-6-12-1-5v-14l4-12 7-9 7-6 10-5z" fill="#FEFEFE"/>
<path transform="translate(856,728)" d="m0 0h6l2 25 5 19 1 3-20 3-2-26-5-19-1-4z"/>
<path transform="translate(692,1452)" d="m0 0 3 3 8 13 9 12 12 14 12 13 23 23v2h2l7 8 8 8 9 11 10 13 9 15 7 14 6 18 2 11v7h-1l-4-18-8-20-8-14-9-13-8-10-9-10-7-8-6-7-28-28-7-8-13-16-12-18-7-13z" fill="#FEFEFE"/>
<path transform="translate(1315,1461)" d="m0 0 1 3-10 24-15 29-15 25-19 32-12 22-12 26-8 24-4 18h-1l1-12 5-21 7-20 12-26 15-27 15-24 15-25 12-21z" fill="#FEFEFE"/>
<path transform="translate(859,928)" d="m0 0 9 1 6 4 5 7 4 19 4 4 2 1h15l1-1v-33h1l5 30 5 22v13l-4-5-5-12-2-11-9 4h-10l-6-3-4-5-2-8-1-13-4-7-4-2h-9l-4 4-1 7-1 3-1-2v-8l4-6z" fill="#FEFEFE"/>
<path transform="translate(1061,268)" d="m0 0 4 1 4 5 2 5 2 16 7-14 5-7 7-4h8l5 4 3 8v7l-4 16 1 9 3 5 8 4v1l-8-1-8-7-2-5v-13l2-13-2-7-4-1-6 4-7 10-8 18h-4l-1-6v-21l-3-10z" fill="#FEFEFE"/>
<path transform="translate(1229,553)" d="m0 0h9l6 4 4 9v9l-8 24v8l3 6 7 3 11-2-1 3-8 4-9-1-6-4-5-8v-11l6-15 4-11-1-8-5-5h-8l-6 4-6 12-2 12h-1v-12l4-11 7-8z" fill="#FEFEFE"/>
<path transform="translate(1250,395)" d="m0 0 8 1 3 3h-8l-6 3-3 5v7l3 5 4 3 6 1 6-1-3 5-7 6-10 4-6 1h-8l-16-4-12-7 4-1 14 3 8 1h11l11-2-8-5-4-5-1-10 4-8 6-4z" fill="#FEFEFE"/>
<path transform="translate(1225,376)" d="m0 0h17l13 4 11 7-2 1-19-4h-22l-7 2 5 5-7-1-6 2-4 4-1 2v8l3 5 5 3h10l-3 3-2 1h-10l-6-3-5-8v-9l4-7 10-7 7-5z" fill="#FEFEFE"/>
<path transform="translate(1377,628)" d="m0 0h12l9 5 4 6 1 3v11l-4 8-2 3 9 1 8 2v1h-26l-1-4 6-8 2-5v-8l-3-5-6-4h-7l-8 4-4 8v11l4 8-3 1-16-2v-1h14l-4-9v-9l4-9 7-6z" fill="#FEFEFE"/>
<path transform="translate(1163,965)" d="m0 0 9 1 10 6 6 9-1 3-4-6-10-5h-10l-9 4-6 7-1 3v12l5 8 5 4 6 2h8l8-3 6-4-2 4-8 6-3 1h-13l-10-5-6-7-3-8v-11l4-10 9-8z" fill="#FEFEFE"/>
<path transform="translate(1109,491)" d="m0 0 1 3-6 10-8 5-8 2-9-1-9-4-5-2h-6l-11 9-4 3-9 1-7-3-7-6-3-7 1-4 5 8 5 4 3 1h8l8-7 7-6 3-1h8l14 7 4 1h8l10-4 6-7z" fill="#FEFEFE"/>
<path transform="translate(1334,927)" d="m0 0 2 3 3 10 1 1 19-3 9-3-4-3v-2h22l-6 7-8 9h-1v-7l-19 7-7 2 3 11-5-1-6-5-1-4h-16l-5-2 3-2 15-3v-10z" fill="#FEFEFE"/>
<path transform="translate(1108,463)" d="m0 0 1 2-4 7-8 6-6 2h-10l-10-4-7-3-7 1-8 8-7 4h-9l-6-3-5-5-4-8 1-3 4 6 7 6 8 1 6-3 6-7 6-4 7-1 9 3 10 5h12l8-4 3-1 2-4z" fill="#FEFEFE"/>
<path transform="translate(750,1228)" d="m0 0 1 2-7 10-11 11-20 14-16 11-11 10-11 14-9 16-6 16-4 20h-1v-11l4-18 6-15 8-14 11-13 7-7 17-12 18-11 14-11 8-9z" fill="#FEFEFE"/>
<path transform="translate(1324,1079)" d="m0 0h13l8 4 7 8 2 5v11l-4 8-6 6-2-1 4-6 1-3v-11l-4-8-6-5-3-1h-11l-7 4-4 5-1 3v12l3 6 5 5 1 2-5-2-5-5-2-5-2-1v-13l5-10 8-6z" fill="#FEFEFE"/>
<path transform="translate(734,1471)" d="m0 0 7 6 32 34 9 10 12 14 11 13 9 13 9 16 5 15-1 4-5-13-7-13-10-14-11-13-9-10-7-8-24-28-11-13-9-11z" fill="#FEFEFE"/>
<path transform="translate(1278,1480)" d="m0 0 1 2-18 30-16 25-11 17-13 20-9 16-7 16-3 10h-1l1-10 7-19 11-21 13-20 28-42 16-23z" fill="#FEFEFE"/>
<path transform="translate(1022,911)" d="m0 0h1l1 8v9l10-3h11l-2 4-7 4-11 1v10l1 6-1 20-3 13h-2l-2-10v-20l2-20-11-1 1-2 11-1z" fill="#FEFEFE"/>
<path transform="translate(713,1025)" d="m0 0 2 1-8 4-8 2-47 1-18 3-21 6-16 7-6 2 4-4 19-10 18-6 16-3 11-1h11l14 1h19z" fill="#FEFEFE"/>
<path transform="translate(1011,609)" d="m0 0h26l44 8 10 1h9l13-1-3 2-7 2-9 1h-11l-22-3-26-5-8-1h-20l-12 2 4-3z" fill="#FEFEFE"/>
<path transform="translate(1273,1102)" d="m0 0 3 4 4 8v2l21-5h5l-4 3-17 7h-2l3 7v11h-2l-6-9-2-5-11 3h-9l5-5 11-5 3-2-2-9z" fill="#FEFEFE"/>
<path transform="translate(887,662)" d="m0 0 2 1-12 6-13 3-8 1h-60l-15 3-3-1 10-4 16-3h52l18-2z" fill="#FEFEFE"/>
<path transform="translate(837,1150)" d="m0 0 14 1 10 4 1 2-10-2h-16l-16 5-16 8-17 8-13 4-13 1-1-2 11-2 14-5 33-17 13-4z" fill="#FEFEFE"/>
<path transform="translate(1180,696)" d="m0 0 14 1 15 4 33 12 13 3 14 1v1l-5 1h-13l-19-4-31-11-13-3-12-1-16 2 4-3 7-2z" fill="#FEFEFE"/>
<path transform="translate(1212,588)" d="m0 0 7 2 5 5 3 7v5l-2-4-4-5-10-2-7 3-3 4v9l3 5 5 2h9l5-2-5 5-2 1h-10l-7-4-4-6-1-3v-7l4-9 5-4z" fill="#FEFEFE"/>
<path transform="translate(908,860)" d="m0 0 2 1-12 6-16 5-38 8-19 7-11 7-4 2 3-5 13-9 14-6 19-5 32-6z" fill="#FEFEFE"/>
<path transform="translate(1032,945)" d="m0 0h9l6 4 3 5v13l-5 16v11l5 5 1 2-7-1-5-5-2-4v-10l7-16 1-9-3-6-6-2-10 1 3-3z" fill="#FEFEFE"/>
<path transform="translate(970,918)" d="m0 0 1 3-4 17v26l4 20 7 21 6 14-1 2-8-14-7-16-5-17-1-6v-26l4-15z" fill="#FEFEFE"/>
<path transform="translate(1315,863)" d="m0 0 16 2 16 8 17 12 12 6 13 3 16 1-4 2h-20l-13-4-11-6-13-10-12-7-10-3-18-1 4-2z" fill="#FEFEFE"/>
<path transform="translate(1354,674)" d="m0 0h12l47 6v1l-7 1h-45l-16-3-5-2v-1z" fill="#FEFEFE"/>
<path transform="translate(968,1050)" d="m0 0 4 2 4 5 1 8-3 8-5 5-3 1h-8l-2-2 4-8z" fill="#FEFEFE"/>
<path transform="translate(1212,1230)" d="m0 0 4 1 4 5 1 2v7l-5 10-5 3h-9v-4z" fill="#FEFEFE"/>
<path transform="translate(833,266)" d="m0 0h5l-4 2-13 5-11 6-11 9-9 12-7 15-3 12-1 9h-1l-1-8 2-15 5-13 8-12 8-8 11-7 12-5z" fill="#FEFEFE"/>
<path transform="translate(1024,819)" d="m0 0 15 2 17 6 18 7 10 2h15l-2 2-4 1h-17l-15-4-23-9-8-2h-20l-8 1 2-2 10-3z" fill="#FEFEFE"/>
<path transform="translate(1038,579)" d="m0 0h9l15 3 25 7 7 1h15l-2 2-11 2-14-1-19-5-17-4h-13l-10 3-4 1 5-5 8-3z" fill="#FEFEFE"/>
<path transform="translate(718,1173)" d="m0 0 2 1-8 6-10 10-7 8-9 8-8 5-11 4-5 1h-20l-5-1v-1l17-1 12-3 12-5 11-8 18-18z" fill="#FEFEFE"/>
<path transform="translate(718,1040)" d="m0 0 2 1-8 5-11 3-7 1h-16l-15-1h-18l-17 3 3-3 13-4 7-1h18l27 1 14-2z" fill="#FEFEFE"/>
<path transform="translate(1041,353)" d="m0 0h22l25 6 12 3 22 2-4 2h-21l-23-5-20-4h-14l-13 3 3-3z" fill="#FEFEFE"/>
<path transform="translate(801,456)" d="m0 0h13l17 3 15 3h21l-3 2-6 2h-18l-21-4-9-1h-13l-22 3 4-3 14-4z" fill="#FEFEFE"/>
<path transform="translate(1198,480)" d="m0 0h14l15 4 15 6 21 9 10 3v1h-8l-17-5-25-10-11-3-7-1h-10l-9 1 4-3z" fill="#FEFEFE"/>
<path transform="translate(1376,537)" d="m0 0 3 1-12 7-10 9-8 9-6 10-5 14-2 11-1 12h-1l-1-5v-16l4-15 7-13 11-12 10-7z" fill="#FEFEFE"/>
<path transform="translate(1218,291)" d="m0 0 2 1-13 11-10 13-7 14-4 16-1 20-2-4-1-6v-14l4-16 7-14 11-12 10-7z" fill="#FEFEFE"/>
<path transform="translate(1180,868)" d="m0 0 15 1 13 4 10 5 14 10 12 7 7 2v1l-10-1-16-8-14-9-13-5-15-3-16-1v-1z" fill="#FEFEFE"/>
<path transform="translate(1089,179)" d="m0 0h5l-3 2-16 8-11 9-8 9-8 14-5 16-1 6h-2l1-13 4-13 6-12 11-12 11-8 12-5z" fill="#FEFEFE"/>
<path transform="translate(918,836)" d="m0 0v3l-9 8-10 5-17 4-29 4-10 3-3-1 12-6 18-4 25-4 13-5 9-6z" fill="#FEFEFE"/>
<path transform="translate(888,647)" d="m0 0 2 1-5 4-9 4-9 2-13 1h-45l4-2 32-3 20-1 13-2z" fill="#FEFEFE"/>
<path transform="translate(1174,1110)" d="m0 0 6 2 3 3v6l-4 5-6 3 3 11-1 4-2-1-3-11-1-1-3 8-3-1 2-8 6-14 2-5z" fill="#FEFEFE"/>
<path transform="translate(603,815)" d="m0 0h8l-4 2-9 4-9 7-6 9-5 12-3 17-1 12-2-3v-22l3-12 6-11 9-9 9-5z" fill="#FEFEFE"/>
<path transform="translate(1336,729)" d="m0 0h16l13 4 22 9 16 4v1h-13l-12-3-22-9-8-2h-20l4-3z" fill="#FEFEFE"/>
<path transform="translate(1247,1011)" d="m0 0h1v9l-4 10-6 8-9 8-17 12-8 8-4 5 1-5 6-9 4-4h2v-2l19-14 7-7 5-8z" fill="#FEFEFE"/>
<path transform="translate(804,1113)" d="m0 0 3 1-8 4-12 5-9 7-7 7-8 15-3 14h-1v-14l5-13 8-11 11-8 9-4z" fill="#FEFEFE"/>
<path transform="translate(1342,851)" d="m0 0 10 1 12 6 14 11 11 5h13l5-1-3 3-6 2h-12l-9-4-10-7-12-9-9-4-8-1z" fill="#FEFEFE"/>
<path transform="translate(1274,958)" d="m0 0 5 2 8 8 12 19 7 9 8 7 12 4v1h-8l-10-4-10-9-8-13-9-15-7-8z" fill="#FEFEFE"/>
<path transform="translate(1288,1263)" d="m0 0h3v16l5-13h3l-2 9-8 19h-3v-10l1-9-7 15h-2l1-6z" fill="#FEFEFE"/>
<path transform="translate(1241,792)" d="m0 0 4 4 2 4v11l-3 6-4 4-3 1h-7l7-15z"/>
<path transform="translate(1204,688)" d="m0 0h14l18 6 10 4 4 1h15l7-2v2l-7 4-4 1h-13l-12-4-21-9-11-2z" fill="#FEFEFE"/>
<path transform="translate(1027,804)" d="m0 0h11l19 5 16 5 6 1h19l-4 3-4 1h-18l-17-5-19-7-9-2z" fill="#FEFEFE"/>
<path transform="translate(954,1045)" d="m0 0 4 1-1 12-1 6h2l-1 3h-3l-1 7-1 2-3-1 2-10h-5l-4 6h-2l1-4 7-12z" fill="#FEFEFE"/>
<path transform="translate(1161,1104)" d="m0 0 2 1v11l-1 7 2 1v2l-3 1-3 9-3-1 2-10h-5l-4 6h-2l1-5 2-5 3-3 8-13z" fill="#FEFEFE"/>
<path transform="translate(810,1188)" d="m0 0h8l-3 2-11 4-16 9-10 3h-8l-7-3-5-5-1-4 6 5 5 2h8l12-4 15-7z" fill="#FEFEFE"/>
<path transform="translate(1220,466)" d="m0 0h11l12 3 27 12 6 2v1h-7l-14-4-20-8-7-2-15-1 3-2z" fill="#FEFEFE"/>
<path transform="translate(1060,370)" d="m0 0h17l27 8 11 1 9-1-3 3-8 2h-8l-17-4-18-6-10-2z" fill="#FEFEFE"/>
<path transform="translate(810,447)" d="m0 0h14l22 6h18l-3 3-8 2h-8l-19-5-7-2-15-1 2-2z" fill="#FEFEFE"/>
<path transform="translate(1124,1090)" d="m0 0h2l-1 6-3 7 7 1 3-12 3 1-2 12v3h-3l-1 5-3 7-3-1 3-9v-3l-5-1-5 11-2-1 1-7 8-18z" fill="#FEFEFE"/>
<path transform="translate(918,1030)" d="m0 0h2l-1 7-3 6 6 1 3-7 2-5 2 1-1 8-1 7-2 1-4 10h-4l2-6 2-5-6-3-4 12-3-1 1-6 4-9z" fill="#FEFEFE"/>
<path transform="translate(1163,985)" d="m0 0h6l5 5-1 7-4 3h-6l-5-5 1-7z" fill="#FEFEFE"/>
<path transform="translate(1111,919)" d="m0 0v3l-10 18-8 19-4 12h-1v-10l5-17 8-14z" fill="#FEFEFE"/>
<path transform="translate(1107,865)" d="m0 0h10l10 4 8 6 8 7 5 3 8 2v1h-10l-10-5-10-9-8-4-14-3z" fill="#FEFEFE"/>
<path transform="translate(1378,554)" d="m0 0 2 1-10 9-8 9-7 14-3 10h-1v-10l3-10 7-11 9-8z" fill="#FEFEFE"/>
<path transform="translate(1200,899)" d="m0 0h9l10 4 16 11 7 3 5 1v1h-11l-12-6-10-7-9-4-7-1z" fill="#FEFEFE"/>
<path transform="translate(1372,720)" d="m0 0h8l17 5 7 2h13l-3 3-3 1h-12l-21-7-10-2z" fill="#FEFEFE"/>
<path transform="translate(1246,1244)" d="m0 0 5 1 3 3-1 6h-2l-1-6h-4v7l2 8-1 7-4 4h-6l-4-4 1-6h3v6l4 1 3-4-1-9-1-4v-7z" fill="#FEFEFE"/>
<path transform="translate(1368,1033)" d="m0 0 9 1 8 4 7 8 6 12v3l-5-5-9-12-8-5-13-4v-1z" fill="#FEFEFE"/>
<path transform="translate(1217,310)" d="m0 0 2 1-8 10-5 11-4 19-2-4v-13l4-11 6-8z" fill="#FEFEFE"/>
<path transform="translate(822,284)" d="m0 0 3 1-10 7-10 9-10 15-1-2 3-9 6-9 9-8z" fill="#FEFEFE"/>
<path transform="translate(1214,1233)" d="m0 0 4 4v9l-4 6-5 4h-3l1-6z"/>
<path transform="translate(1141,1098)" d="m0 0 7 1 4 2v2l-9-3-3 10 5 1 1 2h-7l-3 10 8-1v4h-8l-4-3 2-8 6-15z" fill="#FEFEFE"/>
<path transform="translate(970,1054)" d="m0 0 3 3 1 2-1 9-4 6-5 3-3-1 8-21z"/>
<path transform="translate(1228,1239)" d="m0 0 7 1 4 2-4 1-5-1-3 9 5 1v2l-7-1-2 10h9v3l-8 1-5-3 1-7 7-17z" fill="#FEFEFE"/>
<path transform="translate(1019,1315)" d="m0 0 4 2 3 6v2l-3-1-2-6-8 4 1 7-3-1-1-4-8 5h-2l5 5 2 1-1 3-5-2-3-3-1-4 5-5z" fill="#FEFEFE"/>
<path transform="translate(936,1038)" d="m0 0 5 1 5 2v2l-9-2-3 9 6 2v2l-6-1-3 6-1 5 9-1v3h-10l-2-2v-6l8-19z" fill="#FEFEFE"/>
<path transform="translate(1085,196)" d="m0 0 2 1-11 9-10 11-7 11-1-2 4-11 7-9 7-6z" fill="#FEFEFE"/>
<path transform="translate(1272,1258)" d="m0 0 7 1 6 2-1 2-7-1-1 6-5 12v3l4 2-1 2-9-2-3-1v-2h5l1-5 6-16-2-1z" fill="#FEFEFE"/>
<path transform="translate(1007,846)" d="m0 0h2l-2 4-5 4-7 2h-18l-7-1 2-2 26-3 8-3z" fill="#FEFEFE"/>
<path transform="translate(1303,1270)" d="m0 0 3 1v8l6-7h2l-1 5-8 9-5 13h-3l1-6 3-7 1-13z" fill="#FEFEFE"/>
<path transform="translate(1e3 1287)" d="m0 0 3 1 5 7-1 3-5-4-18 10 1 6-3-1-5-8v-2l5 1 17-9h2z" fill="#FEFEFE"/>
<path transform="translate(603,832)" d="m0 0 2 1-9 11-6 13-2 8-2-2v-7l3-10 6-8 6-5z" fill="#FEFEFE"/>
<path transform="translate(814,1372)" d="m0 0 1 2-2 3v6l5 6v8l-7 7h-1v-5l2-3v-7l-3-5v-6z" fill="#FEFEFE"/>
<path transform="translate(1011,1302)" d="m0 0h4l4 7v3h-2l-3-5v-2l-6 3h-2l3 7-4-1-1-2-4 1-9 5v-4z" fill="#FEFEFE"/>
<path transform="translate(783,1363)" d="m0 0h8l-2 2-7 2-2 11-5 5h-11l4-4 7-3 3-9 3-3z" fill="#FEFEFE"/>
<path transform="translate(1257,1251)" d="m0 0 8 1 6 3v2h-7l-6 15-3 9-3-1 3-11 6-15-5-1z" fill="#FEFEFE"/>
<path transform="translate(766,1334)" d="m0 0h7l6 5h-3l-6-2-5 3-4 3h-6l-6-5v-2l-2-1 14 2z" fill="#FEFEFE"/>
<path transform="translate(1187,1118)" d="m0 0h7l7 4-1 2-5-1-4 8-5 15h-4l3-10 6-15-4-1z" fill="#FEFEFE"/>
<path transform="translate(864,1333)" d="m0 0h8l5 5 2 3-6-1-6-2-8 4-7-1-4-5 5 2 7-1z" fill="#FEFEFE"/>
<path transform="translate(850,1293)" d="m0 0h12l-2 3-8 3-4 10-4 3h-8v-1l7-2 2-2 1-9z" fill="#FEFEFE"/>
<path transform="translate(815,1272)" d="m0 0 1 4-2 4v6l3 5v7l-5 4 2-7-3-5-3-4v-7l5-5z" fill="#FEFEFE"/>
<path transform="translate(839,1361)" d="m0 0h1l2 7 3 2 9 1 4 5v11l-3-3-3-7-3-2-7-2-3-4z" fill="#FEFEFE"/>
<path transform="translate(999,1275)" d="m0 0h3v3l-21 11h-2l5 5-1 3-4-2-3-4v-4l22-11z" fill="#FEFEFE"/>
<path transform="translate(860,1315)" d="m0 0 3 1-3 7-4 3-5 1-9-3-1 2-1-4h14l4-6z" fill="#FEFEFE"/>
<path transform="translate(827,1367)" d="m0 0h1v9l8 8v3l-8-2-4-6 1-7z" fill="#FEFEFE"/>
<path transform="translate(801,1369)" d="m0 0v3l-5 4v11l-2 2-3-5v-8l5-5z" fill="#FEFEFE"/>
<path transform="translate(845,1349)" d="m0 0 7 6h11v3l-4 2h-7l-5-4z" fill="#FEFEFE"/>
<path transform="translate(1175,1114)" d="m0 0 5 1v6l-3 3-6 1 3-9z"/>
<path transform="translate(1439,1185)" d="m0 0 9 4v4l-5-1-6-3v-3z"/>
<path transform="translate(255,680)" d="m0 0 9 3 2 4-3 1-8-3-1-4z"/>
<path transform="translate(635,1849)" d="m0 0h3l1 3-4 8-3 1-1-3z"/>
<path transform="translate(1327,1815)" d="m0 0 4 2 2 5-1 5-3-1-3-7z"/>
<path transform="translate(1282,1702)" d="m0 0 3 1 3 7-1 4-4-2-2-5z"/>
<path transform="translate(1840,1357)" d="m0 0 5 1 6 3v3l-3 1-8-4-1-2z"/>
<path transform="translate(1817,1348)" d="m0 0 7 1 5 3-1 3-5-1-6-3z"/>
<path transform="translate(1684,1290)" d="m0 0 9 3 2 3-4 2-8-4z"/>
<path transform="translate(303,1277)" d="m0 0 5 1-1 3-7 3-4-1 2-4z"/>
<path transform="translate(552,1177)" d="m0 0 4 1-2 4-5 2-5-1 1-3z"/>
<path transform="translate(1415,1176)" d="m0 0 6 1 5 2v4l-6-1-5-2z"/>
<path transform="translate(1720,708)" d="m0 0 5 1-1 3-7 3-4-1 2-4z"/>
<path transform="translate(143,633)" d="m0 0 6 1 5 2-1 4-5-1-5-2-1-3z"/>
<path transform="translate(671,180)" d="m0 0 3 1 3 10-4 1-3-7z"/>
<path transform="translate(664,1782)" d="m0 0h3l-1 7-2 4h-4l1-6z"/>
<path transform="translate(1300,1747)" d="m0 0 3 1 3 7-1 4h-3l-3-8z"/>
<path transform="translate(712,1670)" d="m0 0 3 1-1 5-3 6-3-1 1-6z"/>
<path transform="translate(146,1340)" d="m0 0 4 1-2 4-5 2-5-1 1-3z"/>
<path transform="translate(191,1322)" d="m0 0 4 1-2 4-5 2-5-1 1-3z"/>
<path transform="translate(236,1304)" d="m0 0 4 1-1 3-6 3-5-1 1-3z"/>
<path transform="translate(348,1259)" d="m0 0 5 1-1 3-10 3v-4z"/>
<path transform="translate(1572,1243)" d="m0 0 6 1 5 3-1 3-5-1-6-3z"/>
<path transform="translate(393,1241)" d="m0 0h5l-1 4-10 3v-4z"/>
<path transform="translate(1531,998)" d="m0 0h12v4h-12z"/>
<path transform="translate(462,998)" d="m0 0h12v4h-12z"/>
<path transform="translate(219,998)" d="m0 0h12v4h-12z"/>
<path transform="translate(73,998)" d="m0 0h12v4h-12z"/>
<path transform="translate(501,785)" d="m0 0 9 3 2 3-3 2-9-4z"/>
<path transform="translate(1563,771)" d="m0 0 4 1-2 4-5 2-5-1 1-3z"/>
<path transform="translate(457,766)" d="m0 0 10 4v3l-3 1-8-4v-3z"/>
<path transform="translate(1675,726)" d="m0 0 5 1-1 3-7 3-4-1 1-3z"/>
<path transform="translate(322,709)" d="m0 0 5 1 6 3-1 3-6-1-5-3z"/>
<path transform="translate(1790,680)" d="m0 0 2 1-1 4-9 3-1-4z"/>
<path transform="translate(1812,671)" d="m0 0 3 1-1 4-9 3-2-3 4-3z"/>
<path transform="translate(211,661)" d="m0 0 9 3 1 4-2 1-9-4z"/>
<path transform="translate(188,652)" d="m0 0 6 1 5 3-1 3-6-1-5-3z"/>
<path transform="translate(166,642)" d="m0 0 9 3 1 4-2 1-9-4z"/>
<path transform="translate(734,338)" d="m0 0 3 1 3 7-1 4-3-1-3-7z"/>
<path transform="translate(724,316)" d="m0 0h4l3 7-1 4h-3l-3-7z"/>
<path transform="translate(1295,303)" d="m0 0 4 1-3 9-3 2-2-3z"/>
<path transform="translate(706,271)" d="m0 0h4l3 7-1 4h-3l-3-7z"/>
<path transform="translate(1316,258)" d="m0 0 2 1-1 5-3 6h-3l1-7 2-4z"/>
<path transform="translate(689,225)" d="m0 0 3 1 3 10-4 1-3-7z"/>
<path transform="translate(1333,214)" d="m0 0h4l-1 6-3 5h-3l1-7z"/>
<path transform="translate(998,190)" d="m0 0h4v12h-4z"/>
<path transform="translate(652,135)" d="m0 0h3l4 10-1 2h-3l-4-10z"/>
<path transform="translate(1372,124)" d="m0 0 3 1-1 6-3 5-3-1 1-6z"/>
<path transform="translate(1345,1860)" d="m0 0 4 2 2 5-1 5-3-1-3-10z"/>
<path transform="translate(645,1827)" d="m0 0h3l-1 6-2 5h-4l1-6z"/>
<path transform="translate(655,1804)" d="m0 0 3 2-3 9-4 1 1-7z"/>
<path transform="translate(1318,1792)" d="m0 0 3 1 3 7-1 4-3-1-3-7z"/>
<path transform="translate(1309,1770)" d="m0 0 4 2 2 5v4h-4l-3-7z"/>
<path transform="translate(684,1737)" d="m0 0 2 1-1 6-3 5-3-1 1-5 2-5z"/>
<path transform="translate(693,1715)" d="m0 0 3 1-1 5-2 5-3 1-1-5 3-6z"/>
<path transform="translate(1272,1680)" d="m0 0h4l3 10-4 1-3-7z"/>
<path transform="translate(749,1581)" d="m0 0 4 1-1 5-2 5h-4l1-6z"/>
<path transform="translate(1862,1367)" d="m0 0 6 1 5 2v4l-6-1-5-3z"/>
<path transform="translate(1773,1329)" d="m0 0 6 1 5 3-1 3-5-1-5-2-1-3z"/>
<path transform="translate(1751,1319)" d="m0 0 5 1 5 2v4l-6-1-5-2z"/>
<path transform="translate(1706,1300)" d="m0 0 6 1 5 3-1 3-6-1-5-3z"/>
<path transform="translate(281,1286)" d="m0 0h4l-1 4-7 3h-3v-4z"/>
<path transform="translate(1661,1281)" d="m0 0 6 1 5 3v3l-6-1-5-2z"/>
<path transform="translate(1640,1271)" d="m0 0 10 4v3l-3 1-8-4v-3z"/>
<path transform="translate(1616,1262)" d="m0 0 7 1 4 2v4l-6-1-5-3z"/>
<path transform="translate(1595,1252)" d="m0 0 9 3 1 4-2 1-9-4z"/>
<path transform="translate(1505,1214)" d="m0 0 5 1 5 2 1 3-5 1-6-3z"/>
<path transform="translate(463,1213)" d="m0 0 3 3-5 3-5 2-2-1 1-4z"/>
<path transform="translate(508,1195)" d="m0 0h2l1 3-5 3-7 1 1-4z"/>
<path transform="translate(1460,1195)" d="m0 0 6 1 5 3v3l-7-1-4-2z"/>
<path transform="translate(736,886)" d="m0 0 6 1 5 3-1 3-5-1-5-2-1-3z"/>
<path transform="translate(714,876)" d="m0 0 9 3 2 3-3 2-9-4z"/>
<path transform="translate(1518,789)" d="m0 0 4 1-2 4-5 2-5-1 1-3z"/>
<path transform="translate(478,776)" d="m0 0 6 1 5 3v3l-6-1-5-2z"/>
<path transform="translate(412,747)" d="m0 0 9 3 1 4-7-1-4-2z"/>
<path transform="translate(1631,744)" d="m0 0 4 1-1 3-7 3-4-1 1-3z"/>
<path transform="translate(742,742)" d="m0 0 5 1v2h2l3 4-1 3-4-1-5-6z"/>
<path transform="translate(389,738)" d="m0 0 6 1 5 3-1 3-5-1-5-2-1-3z"/>
<path transform="translate(1653,735)" d="m0 0h4v4l-8 3h-3v-4z"/>
<path transform="translate(367,728)" d="m0 0 9 3 2 3-5 1-7-3z"/>
<path transform="translate(299,700)" d="m0 0 7 1 4 2-1 4-9-3z"/>
<path transform="translate(277,690)" d="m0 0 6 1 5 3v3l-7-1-4-2z"/>
<path transform="translate(1835,662)" d="m0 0 3 3-4 3-8 1 1-4z"/>
<path transform="translate(752,383)" d="m0 0 3 1 3 7-1 4-3-1-3-7z"/>
<path transform="translate(742,361)" d="m0 0h4l3 7v4h-4l-3-8z"/>
<path transform="translate(716,293)" d="m0 0 3 1 3 7v3l-3 1-4-8z"/>
<path transform="translate(1324,236)" d="m0 0h3l-1 7-2 4h-4l1-5z"/>
<path transform="translate(679,203)" d="m0 0 4 1 3 9-4 1-3-6z"/>
<path transform="translate(1362,147)" d="m0 0 4 1-4 10-4-1 3-9z"/>
<path transform="translate(999,1931)" d="m0 0 3 1v11h-4v-11z"/>
<path transform="translate(998,1883)" d="m0 0h4v11h-4z"/>
<path transform="translate(999,1858)" d="m0 0 3 1v11h-4v-11z"/>
<path transform="translate(1335,1838)" d="m0 0h4l3 7v4l-4-1-3-7z"/>
<path transform="translate(673,1760)" d="m0 0 4 1-3 9-4 1 1-7z"/>
<path transform="translate(1290,1725)" d="m0 0 4 1 3 7v3h-4l-3-7z"/>
<path transform="translate(702,1693)" d="m0 0h3l-1 7-2 4-4-1 3-9z"/>
<path transform="translate(721,1648)" d="m0 0h3l-1 7-3 5-3-2 3-9z"/>
<path transform="translate(730,1626)" d="m0 0h4l-1 6-3 5h-3l1-6z"/>
<path transform="translate(741,1603)" d="m0 0 3 3-4 8-3 1-1-3 4-8z"/>
<path transform="translate(461,1536)" d="m0 0 3 3-1 2h-2v2h-2v2l-5 1 1-5z"/>
<path transform="translate(1518,1518)" d="m0 0 5 1v2h2v2h2l1 3-3 2-6-5z"/>
<path transform="translate(214,1313)" d="m0 0h3v4l-7 3-4-1 1-3z"/>
<path transform="translate(1728,1310)" d="m0 0 7 1 4 2-1 4-9-3z"/>
<path transform="translate(326,1268)" d="m0 0h4l-1 4-9 3-1-4z"/>
<path transform="translate(1550,1233)" d="m0 0 9 3 1 4-7-1-4-2z"/>
<path transform="translate(415,1232)" d="m0 0h5l-1 4-9 3-1-4z"/>
<path transform="translate(1527,1224)" d="m0 0 6 1 5 2-1 4-5-1-5-3z"/>
<path transform="translate(438,1223)" d="m0 0h5l-1 4-5 2h-5v-3z"/>
<path transform="translate(1482,1205)" d="m0 0 7 1 4 2-1 4-9-3z"/>
<path transform="translate(485,1204)" d="m0 0 3 1v3l-6 3h-5l1-4z"/>
<path transform="translate(1920,998)" d="m0 0h11v4h-11z"/>
<path transform="translate(1896,998)" d="m0 0h11v4h-11z"/>
<path transform="translate(1872,998)" d="m0 0h11v4h-11z"/>
<path transform="translate(1823,998)" d="m0 0h11v4h-11z"/>
<path transform="translate(1775,998)" d="m0 0h11v4h-11z"/>
<path transform="translate(1750,998)" d="m0 0h11v4h-11z"/>
<path transform="translate(1726,998)" d="m0 0h11v4h-11z"/>
<path transform="translate(1702,998)" d="m0 0h11v4h-11z"/>
<path transform="translate(1677,998)" d="m0 0h11v4h-11z"/>
<path transform="translate(1653,998)" d="m0 0h11v4h-11z"/>
<path transform="translate(1629,998)" d="m0 0h11v4h-11z"/>
<path transform="translate(1580,998)" d="m0 0h11v4h-11z"/>
<path transform="translate(1556,998)" d="m0 0h11v4h-11z"/>
<path transform="translate(1507,998)" d="m0 0h11v4h-11z"/>
<path transform="translate(1483,998)" d="m0 0h11v4h-11z"/>
<path transform="translate(1459,998)" d="m0 0h11v4h-11z"/>
<path transform="translate(1434,998)" d="m0 0h11v4h-11z"/>
<path transform="translate(535,998)" d="m0 0h11v4h-11z"/>
<path transform="translate(511,998)" d="m0 0h11v4h-11z"/>
<path transform="translate(487,998)" d="m0 0h11v4h-11z"/>
<path transform="translate(414,998)" d="m0 0h11v4h-11z"/>
<path transform="translate(365,998)" d="m0 0h11v4h-11z"/>
<path transform="translate(341,998)" d="m0 0h11v4h-11z"/>
<path transform="translate(317,998)" d="m0 0h11v4h-11z"/>
<path transform="translate(292,998)" d="m0 0h11v4h-11z"/>
<path transform="translate(244,998)" d="m0 0h11v4h-11z"/>
<path transform="translate(195,998)" d="m0 0h11v4h-11z"/>
<path transform="translate(171,998)" d="m0 0h11v4h-11z"/>
<path transform="translate(122,998)" d="m0 0h11v4h-11z"/>
<path transform="translate(98,998)" d="m0 0h11v4h-11z"/>
<path transform="translate(49,998)" d="m0 0h11v4h-11z"/>
<path transform="translate(759,895)" d="m0 0 10 4-1 4-10-4z"/>
<path transform="translate(1474,807)" d="m0 0 3 1-2 4-5 2-5-1 1-3z"/>
<path transform="translate(523,795)" d="m0 0 6 1 5 3v3l-6-1-5-2z"/>
<path transform="translate(1541,780)" d="m0 0h3v4l-7 3h-4l1-4z"/>
<path transform="translate(1586,762)" d="m0 0h3v4l-7 3-4-1v-3z"/>
<path transform="translate(434,757)" d="m0 0 6 1 4 2v4l-6-1-5-3z"/>
<path transform="translate(1608,753)" d="m0 0 4 1-1 3-6 3h-4v-4z"/>
<path transform="translate(344,719)" d="m0 0 7 1 4 2-1 4-9-3z"/>
<path transform="translate(1698,717)" d="m0 0h4l-1 4-9 3-1-4z"/>
<path transform="translate(1742,699)" d="m0 0h5l-1 4-9 3-1-4z"/>
<path transform="translate(233,671)" d="m0 0 5 1 5 2v4l-6-1-5-3z"/>
<path transform="translate(1857,653)" d="m0 0 3 1v3l-6 3h-5l1-4z"/>
<path transform="translate(999,360)" d="m0 0 3 1v11h-4v-11z"/>
<path transform="translate(999,336)" d="m0 0 3 1v11h-4v-11z"/>
<path transform="translate(998,312)" d="m0 0h4v11h-4z"/>
<path transform="translate(999,287)" d="m0 0 3 1v11h-4v-11z"/>
<path transform="translate(999,263)" d="m0 0 3 1v11h-4v-11z"/>
<path transform="translate(697,248)" d="m0 0 4 1 3 7v3h-4l-3-7z"/>
<path transform="translate(998,239)" d="m0 0h4v11h-4z"/>
<path transform="translate(1344,191)" d="m0 0 2 1-1 6-3 5-3-1 3-10z"/>
<path transform="translate(1353,169)" d="m0 0 3 1-1 5-2 5h-4l1-6z"/>
<path transform="translate(998,166)" d="m0 0h4v11h-4z"/>
<path transform="translate(661,158)" d="m0 0 4 1 3 9-4 1-3-6z"/>
<path transform="translate(999,141)" d="m0 0 3 1v11h-4v-11z"/>
<path transform="translate(999,117)" d="m0 0 3 1v11h-4v-11z"/>
<path transform="translate(998,93)" d="m0 0h4v11h-4z"/>
<path transform="translate(1639,1638)" d="m0 0 4 1 5 6-1 3-4-2-5-5z"/>
<path transform="translate(124,1349)" d="m0 0 3 1v3l-7 3h-4l1-4z"/>
<path transform="translate(1796,1338)" d="m0 0 9 3 1 4-7-1-4-2z"/>
<path transform="translate(169,1331)" d="m0 0 3 1v3l-7 3h-4l1-4z"/>
<path transform="translate(259,1295)" d="m0 0h3v4l-7 3-4-1 1-3z"/>
<path transform="translate(371,1250)" d="m0 0h4l-1 4-9 3-1-4z"/>
<path transform="translate(530,1186)" d="m0 0 3 1v3l-7 3h-4l1-4z"/>
<path transform="translate(1452,816)" d="m0 0 2 1v3l-6 3h-5l1-4z"/>
<path transform="translate(545,805)" d="m0 0 7 1 4 2-1 4-9-3z"/>
<path transform="translate(1496,798)" d="m0 0 3 1v3l-7 3h-4l1-4z"/>
<path transform="translate(1765,690)" d="m0 0h5l-1 4-9 3-1-4z"/>
<path transform="translate(1880,644)" d="m0 0 3 3-5 3-6 1v-4z"/>
<path transform="translate(1517,480)" d="m0 0 3 3-1 2h-2v2l-4 3h-3l1-5z"/>
<path transform="translate(998,385)" d="m0 0h4v11l-3 1-1-1z"/>
<path transform="translate(1670,326)" d="m0 0h4l-1 5-7 5-2-3z"/>
<path transform="translate(1305,281)" d="m0 0h3l-1 6-2 5-4-1 3-9z"/>
<path transform="translate(1e3 214)" d="m0 0 2 1v11h-4v-11z"/>
<path transform="translate(999,1907)" d="m0 0 3 1v10h-4v-10z"/>
<path transform="translate(340,1657)" d="m0 0h3v4l-7 6-3-3 5-5z"/>
<path transform="translate(1656,1655)" d="m0 0 4 2 5 4-1 4h-3l-6-7z"/>
<path transform="translate(425,1571)" d="m0 0h4l-1 4-4 5-3 1-2-3z"/>
<path transform="translate(1536,1535)" d="m0 0h3l6 7-1 3-4-2-5-4z"/>
<path transform="translate(478,1519)" d="m0 0 3 1-2 4-4 5-4-1v-3z"/>
<path transform="translate(1485,1483)" d="m0 0 3 1 5 6v3l-5-1-5-7z"/>
<path transform="translate(597,1399)" d="m0 0 4 1v3l-7 6-3-1 2-4z"/>
<path transform="translate(1399,1397)" d="m0 0 4 2 4 4v4l-4-1-5-5v-3z"/>
<path transform="translate(1848,998)" d="m0 0h10v4h-10z"/>
<path transform="translate(1799,998)" d="m0 0h11v4h-11z"/>
<path transform="translate(1605,998)" d="m0 0h10v4h-10z"/>
<path transform="translate(438,998)" d="m0 0h11v4h-11z"/>
<path transform="translate(390,998)" d="m0 0h10v4h-10z"/>
<path transform="translate(268,998)" d="m0 0h11v4h-11z"/>
<path transform="translate(147,998)" d="m0 0h10v4h-10z"/>
<path transform="translate(657,656)" d="m0 0 4 2 5 5-1 3-4-1-5-6z"/>
<path transform="translate(1448,549)" d="m0 0 3 1-2 4-5 5-3-1 2-5z"/>
<path transform="translate(1534,463)" d="m0 0 3 1-2 4-4 5-4-1v-3z"/>
<path transform="translate(399,398)" d="m0 0 4 1 5 6-1 3-4-2-5-5z"/>
<path transform="translate(1637,360)" d="m0 0 3 1-2 4-5 5-3-1 1-4z"/>
<path transform="translate(1653,343)" d="m0 0 4 1v3l-7 6-3-1 2-4z"/>
<path transform="translate(998,69)" d="m0 0h4v11h-4z"/>
<path transform="translate(1553,1552)" d="m0 0 4 2 5 5-1 3-4-2-5-5z"/>
<path transform="translate(495,1502)" d="m0 0 3 1-1 4-6 5-3-1 2-4z"/>
<path transform="translate(581,1416)" d="m0 0 3 1-2 4-5 5-3-1 1-4z"/>
<path transform="translate(639,639)" d="m0 0h4l6 8-3 2-7-6z"/>
<path transform="translate(503,501)" d="m0 0 4 2 4 5v3l-4-1-5-5v-3z"/>
<path transform="translate(1551,446)" d="m0 0 3 1-1 4-6 5-3-1 2-4z"/>
<path transform="translate(417,415)" d="m0 0 8 6v4h-4l-6-8z"/>
<path transform="translate(331,329)" d="m0 0 3 1 5 6v3l-4-1-5-4-1-3z"/>
<path transform="translate(392,1605)" d="m0 0 3 1-2 4-5 5-3-1 2-4z"/>
<path transform="translate(409,1588)" d="m0 0 3 1-2 4-5 5-3-1 2-4z"/>
<path transform="translate(1467,1466)" d="m0 0 4 2 5 5-1 3-4-2-5-5z"/>
<path transform="translate(1450,1449)" d="m0 0 4 2 5 5-1 3-4-2-5-5z"/>
<path transform="translate(1381,1380)" d="m0 0 4 2 5 5-1 3-4-2-5-5z"/>
<path transform="translate(674,673)" d="m0 0 4 2 5 5-1 3-4-2-5-5z"/>
<path transform="translate(588,587)" d="m0 0 4 2 5 5-1 3-4-2-5-5z"/>
<path transform="translate(571,570)" d="m0 0 4 2 5 5-1 3-4-2-5-5z"/>
<path transform="translate(554,553)" d="m0 0 4 2 5 6-3 2-3-2v-2h-2l-2-5z"/>
<path transform="translate(1465,532)" d="m0 0 3 1-2 4-5 5-3-1 2-4z"/>
<path transform="translate(485,484)" d="m0 0 4 2 5 5-1 3-4-2-5-5z"/>
<path transform="translate(468,467)" d="m0 0 4 2 5 5-1 3-4-2-5-5z"/>
<path transform="translate(382,381)" d="m0 0 4 2 5 5-1 3-4-2-5-5z"/>
<path transform="translate(375,1622)" d="m0 0 3 3-7 7h-3l1-4z"/>
<path transform="translate(1621,1621)" d="m0 0 4 1 6 7-3 2-7-7z"/>
<path transform="translate(1571,1569)" d="m0 0 7 6 1 4-4-1-6-7z"/>
<path transform="translate(512,1485)" d="m0 0h3l-1 4-7 6-2-3z"/>
<path transform="translate(564,1433)" d="m0 0 3 3-7 7h-3l1-4z"/>
<path transform="translate(725,725)" d="m0 0 4 1 6 7-3 2-7-7z"/>
<path transform="translate(692,690)" d="m0 0 7 6 1 4-4-1-6-7z"/>
<path transform="translate(606,604)" d="m0 0 7 6 1 4-4-1-6-7z"/>
<path transform="translate(450,450)" d="m0 0 4 1 6 7-3 2-7-7z"/>
<path transform="translate(1620,377)" d="m0 0 3 3-7 7h-3l1-4z"/>
<path transform="translate(364,364)" d="m0 0 4 1 6 7-3 2-7-7z"/>
<path transform="translate(1432,1432)" d="m0 0 4 1 6 7-4 1-6-6z"/>
<path transform="translate(622,622)" d="m0 0 4 1 5 5v3l-4-1-5-5z"/>
<path transform="translate(536,536)" d="m0 0 4 1 6 7-4 1-6-6z"/>
<path transform="translate(519,519)" d="m0 0h4l5 6v3l-4-1-5-5z"/>
<path transform="translate(1482,515)" d="m0 0 3 1-2 4-6 5-2-3z"/>
<path transform="translate(1568,429)" d="m0 0 3 1-2 4-6 5-2-3z"/>
<path transform="translate(1585,412)" d="m0 0h3l-1 4-7 6-1-4z"/>
<path transform="translate(347,347)" d="m0 0 4 1 6 7-4 1-6-6z"/>
<path transform="translate(357,1640)" d="m0 0h3l-1 4-5 5h-3l1-4z"/>
<path transform="translate(1604,1604)" d="m0 0 4 1 5 5v3l-4-1-5-5z"/>
<path transform="translate(1587,1587)" d="m0 0 4 1 5 5v3l-4-1-5-5z"/>
<path transform="translate(443,1554)" d="m0 0h3l-1 4-5 5h-3l1-4z"/>
<path transform="translate(1501,1501)" d="m0 0 4 1 5 5v3l-4-1-5-5z"/>
<path transform="translate(529,1468)" d="m0 0h3l-1 4-5 5h-3l1-4z"/>
<path transform="translate(546,1451)" d="m0 0h3l-1 4-5 5h-3l1-4z"/>
<path transform="translate(1415,1415)" d="m0 0 4 1 5 5v3l-4-1-5-5z"/>
<path transform="translate(708,708)" d="m0 0 4 1 5 5v3l-4-1-5-5z"/>
<path transform="translate(1499,498)" d="m0 0h3l-1 4-5 5h-3l1-4z"/>
<path transform="translate(433,433)" d="m0 0 4 1 5 5v3l-4-1-5-5z"/>
<path transform="translate(1602,395)" d="m0 0h3l-1 4-5 5h-3l1-4z"/>
<path transform="translate(998,48)" d="m0 0h4v8h-4z"/>
<path transform="translate(644,116)" d="m0 0 4 1 1 7-4-1z"/>
<path transform="translate(1945,998)" d="m0 0h7v4h-7z"/>
<path transform="translate(1159,1112)" d="m0 0 1 4-2 7-4-1 2-5z"/>
<path transform="translate(953,1053)" d="m0 0h1l-1 9-3 1-2-2z"/>
<path transform="translate(124,625)" d="m0 0 6 1 2 3-3 2-5-3z"/>
</svg>
